<svg width="85" height="85" viewBox="0 0 85 85" fill="none" xmlns="http://www.w3.org/2000/svg">
<path d="M0 85C0.946698 75.9069 1.57783 68.7564 1.8934 63.5485C2.34421 56.4393 2.77247 46.6849 3.1782 34.2852C3.62901 21.8855 3.85442 13.1437 3.85442 8.05981C3.85442 6.24119 3.83187 3.67858 3.78679 0.371991C9.78255 0.495988 14.5386 0.557987 18.0549 0.557987C22.9687 0.557987 28.694 0.475322 35.2307 0.309993C41.7674 0.103331 47.38 0 52.0684 0C57.7035 0 61.7157 0.144663 64.105 0.43399C67.2607 0.805981 70.0106 1.4673 72.3548 2.41794C74.7441 3.36859 76.7277 4.54656 78.3055 5.95186C80.0636 7.60515 81.4386 9.58911 82.4304 11.9037C83.5574 14.549 84.1209 17.3803 84.1209 20.3975C84.1209 22.7535 83.7828 25.0061 83.1066 27.1554C82.4755 29.3046 81.5513 31.2266 80.3341 32.9212C79.162 34.5745 77.8321 35.9592 76.3445 37.0751C74.8568 38.1911 73.3917 39.0591 71.9491 39.6791C70.5516 40.2991 68.6582 40.919 66.2689 41.539C68.6582 41.911 70.5741 42.345 72.0167 42.841C73.4593 43.2957 74.992 44.0603 76.615 45.1349C78.283 46.1682 79.7706 47.5116 81.078 49.1648C82.3853 50.8181 83.3545 52.6781 83.9857 54.7447C84.6619 56.77 85 58.9193 85 61.1926C85 64.3338 84.4365 67.2891 83.3095 70.0583C82.1824 72.8276 80.6046 75.2042 78.576 77.1882C76.8629 78.8828 74.6314 80.3294 71.8815 81.5281C69.1315 82.7267 66.314 83.5534 63.4288 84.008C61.0846 84.3387 56.8019 84.5867 50.5807 84.752C44.4047 84.9173 37.8454 85 30.9029 85L13.1185 84.938L0 85ZM30.1591 33.3552H39.7613C42.917 33.3552 45.1485 33.2932 46.4558 33.1692C47.8083 33.0039 49.1156 32.7352 50.3779 32.3632C51.6401 31.9912 52.7221 31.3713 53.6237 30.5033C54.5704 29.6353 55.2241 28.664 55.5847 27.5894C55.9905 26.5147 56.1933 25.4401 56.1933 24.3654C56.1933 22.8361 55.7876 21.4722 54.9761 20.2735C54.2098 19.0749 52.9475 18.1862 51.1893 17.6076C49.4312 17.0289 46.7489 16.7396 43.1424 16.7396H30.9706L30.1591 33.3552ZM28.6038 68.0124H41.5871C45.0133 68.0124 47.5378 67.8264 49.1607 67.4544C51.1443 66.9998 52.6545 66.4004 53.6913 65.6565C54.7282 64.9125 55.5396 63.8998 56.1257 62.6185C56.7568 61.3372 57.0724 59.9113 57.0724 58.3406C57.0724 56.9767 56.8245 55.778 56.3286 54.7447C55.8327 53.7114 55.0888 52.8434 54.0971 52.1408C53.1053 51.4381 51.8881 50.9421 50.4455 50.6528C49.0029 50.3222 46.7489 50.1568 43.6834 50.1568H29.4153L28.6038 68.0124Z" fill="black"/>
</svg>
